<svg class="mask-text hide-for-base" version="1.1" id="Layer_1" xmlns="http://www.w3.org/2000/svg" xmlns:xlink="http://www.w3.org/1999/xlink" x="0px" y="0px" viewBox="0 0 1920 1080" style="transform: matrix(1, 0, 0, 1, 0, 0);" xml:space="preserve">
				  								    <g>
				  								    <g>
				  								        <path d="M1364.68,484.97c-6.48,10.3-13,20.64-19.56,31.01c-6.56,10.37-13.11,20.74-19.66,31.11
				  								        c-6.56,10.37-13.11,20.71-19.66,31.01c-6.56,10.3-13.07,20.64-19.56,31.01v1.73h99.4V453.96h-1.51
				  								        C1377.65,464.33,1371.16,474.67,1364.68,484.97z"></path>
				  								    </g>
                                                        <g>
				  								        <path d="M0,0v1080h1920V0H0z M614.8,351.95c4.86-10.55,10.37-19.29,16.53-26.2c7.85-9.34,17.75-17.09,29.7-23.26
				  								        c11.95-6.17,23.35-9.43,34.19-9.81c0.56,2.43,0.84,5.32,0.84,8.69c0,11.21-2.15,22.09-6.44,32.65
				  								        c-4.3,10.56-9.81,19.94-16.53,28.16c-7.29,8.78-16.44,16.12-27.46,22c-11.02,5.88-21.48,8.83-31.39,8.83
				  								        c-2.06,0-4.02-0.18-5.88-0.56c-0.19-0.56-0.38-1.59-0.56-3.08c-0.19-1.49-0.28-3.08-0.28-4.77
				  								        C607.51,373.39,609.94,362.51,614.8,351.95z M778.59,631.48c-4.58,12.52-12.1,26.44-22.56,41.76
				  								        c-9.16,13.27-19.01,25.5-29.57,36.71c-10.56,11.21-23.21,16.81-37.97,16.81c-9.9,0-18.03-1.45-24.38-4.34
				  								        c-6.35-2.9-12.89-5.79-19.62-8.69c-6.73-2.89-15.79-4.34-27.18-4.34c-11.03,0-20.23,1.5-27.6,4.48
				  								        c-7.38,2.99-14.39,5.98-21.02,8.97c-6.63,2.99-14.43,4.48-23.4,4.48c-13.64,0-25.6-5.42-35.87-16.25
				  								        c-10.28-10.83-20.83-23.82-31.67-38.95c-12.52-17.94-23.22-39.84-32.09-65.72c-8.87-25.87-13.31-51.98-13.31-78.32
				  								        c0-28.21,5.32-51.89,15.97-71.04c10.65-19.15,24.33-33.63,41.05-43.43c16.72-9.81,34.05-14.71,51.98-14.71
				  								        c9.53,0,18.49,1.54,26.9,4.62c8.41,3.08,16.3,6.21,23.68,9.39c7.38,3.18,14.06,4.77,20.04,4.77c5.79,0,12.51-1.68,20.18-5.05
				  								        c7.66-3.36,16.25-6.68,25.78-9.95c9.53-3.27,19.71-4.91,30.55-4.91c4.11,0,11.11,0.66,21.02,1.96c9.9,1.31,20.78,5,32.65,11.07
				  								        c11.86,6.07,22.65,16.11,32.37,30.12c-0.56,0.56-3.27,2.57-8.13,6.03c-4.86,3.46-10.28,8.5-16.25,15.13
				  								        c-5.98,6.63-11.21,15.04-15.69,25.22c-4.48,10.18-6.73,22.28-6.73,36.29c0,16.07,2.85,29.7,8.55,40.91
				  								        c5.7,11.21,12.33,20.22,19.9,27.04c7.57,6.82,14.29,11.82,20.18,14.99c5.88,3.18,9.01,4.86,9.39,5.04
				  								        C785.55,612.33,783.17,618.97,778.59,631.48z M1182.41,718.44h-58.34V507.77h-1.69l-84.09,210.68h-41.06l-84.09-210.68h-1.91
				  								        v210.68h-58.13v-311.8h75.41l88.59,224.07h1.3l88.38-224.07h75.63V718.44z M1487.63,661.4h-41.05v57.05h-62.23V661.4h-154.93
				  								        v-54.67c8.21-13.25,16.49-26.58,24.85-39.97c8.35-13.4,16.71-26.76,25.06-40.08c8.35-13.32,16.71-26.65,25.06-39.97
				  								        c8.35-13.32,16.71-26.68,25.06-40.08c8.35-13.4,16.64-26.72,24.85-39.97h92.26v202.47h41.05V661.4z"></path>
				  								    </g>
				  								    </g>
				  								</svg>